<svg width="50" height="50" viewBox="0 0 118 128" fill="none" xmlns="http://www.w3.org/2000/svg">
<path fill-rule="evenodd" clip-rule="evenodd" d="M117.589 33.9222C117.289 34.7432 116.765 35.6492 116.332 36.3462C113.865 40.3152 109.137 42.3272 104.535 41.4692C104.295 41.4242 104.569 41.3752 103.602 41.2852C103.602 41.8812 103.602 42.3912 103.602 42.9012C103.602 62.8192 103.607 82.7372 103.599 102.655C103.596 108.21 100.538 112.209 95.6614 113.482C94.6724 113.74 93.6194 113.86 92.5954 113.862C79.3804 113.886 66.1663 113.888 52.9513 113.874C46.6123 113.866 41.9663 109.229 41.9323 102.908C41.9153 99.8142 41.9293 96.7202 41.9293 93.5682C35.5773 93.5682 29.3463 93.5682 23.1993 93.5682C23.1993 95.7342 23.3783 97.8262 23.5833 99.9162C24.5293 104.693 24.5313 109.47 25.1193 114.246C25.2093 116.212 26.3073 117.525 28.8893 118.26C29.6933 118.923 30.3453 118.681 31.2723 117.239C33.9153 113.131 40.3793 113.305 42.4073 117.608C42.8433 118.401 43.3043 118.61 44.1333 118.597C46.8253 118.552 49.5183 118.548 52.2103 118.599C53.1393 118.615 53.4383 118.387 53.8333 117.652C55.3913 114.753 58.7863 113.528 61.8223 114.672C64.7483 115.774 66.5384 118.947 65.9264 121.946C65.2514 125.247 62.4403 127.503 59.1383 127.27C56.4723 127.82 54.5393 125.712 53.5123 123.232C53.2233 122.534 52.8963 122.308 52.1653 122.319C49.4733 122.36 46.7793 122.306 44.8893 122.366C43.6793 122.376 43.6393 122.697 42.9083 123.4C41.6723 125.766 39.6283 127.264 36.6203 127.28C33.8773 127.296 31.6643 125.608 30.5363 122.783C30.4913 122.669 30.4473 122.553 30.3753 122.365C28.4183 122.387 26.5393 121.99 24.8913 120.818C22.7863 119.321 21.5293 117.304 21.2753 114.721C19.9383 101.88 18.6143 87.4542 17.2853 73.8192C16.5353 66.1172 15.7903 58.4142 15.3193 50.7122C14.6943 47.2932 12.9353 45.7202 9.48335 45.7112C7.20435 45.7062 4.92635 45.7232 2.64835 45.7052C1.13135 45.6942 0.228348 44.9542 0.242348 43.7892C0.256348 42.6252 1.14235 41.9382 2.69035 41.9292C5.10935 41.9182 7.33035 41.9192 9.64935 41.9272C14.9183 41.9462 18.3513 45.1512 18.7953 50.4042C19.5593 53.4972 19.3753 56.5852 19.6743 59.6742C19.7103 60.4202 19.7893 60.4062 19.8583 60.8362C27.1593 60.8362 34.4373 60.8362 41.8223 60.8362C41.8223 54.3272 41.8223 47.8122 41.8223 41.3622C39.8373 41.3622 37.7923 41.5272 35.7873 41.3152C33.8203 41.1082 32.1263 40.5002 30.6533 38.7242C28.8333 37.8402 27.5903 35.2282 27.8473 32.5652C28.3793 30.5952 27.9223 28.5922 27.8713 26.6062C27.8423 25.4782 28.2193 24.6572 29.0993 23.9252C32.8573 20.8022 36.5293 17.5742 40.3263 14.4992C41.5363 13.5192 41.9883 12.5202 41.9743 10.9592C41.9353 6.55817 43.9753 3.27117 47.8853 1.23317C48.8943 0.707168 50.4493 0.452168 51.1293 0.720168C65.5463 0.720168 79.9644 0.720168 94.3824 0.720168C95.5294 0.266168 95.7323 0.434168 96.3913 0.660168C100.703 2.14417 103.604 6.12217 103.555 10.8092C103.537 12.4882 104.199 13.6002 105.31 14.6882C108.94 17.7052 112.417 20.9042 115.986 23.9952C116.773 24.6772 117.127 25.4282 117.107 26.4692C117.609 28.9532 117.152 31.4402 117.589 33.9222ZM59.5873 123.528C61.3293 123.483 62.2553 122.241 62.2743 120.802C62.2943 119.297 61.4993 118.59 59.5153 118.58C57.9583 118.57 56.7833 119.251 56.8023 120.813C56.8203 122.344 58.8393 123.576 59.5873 123.528ZM36.6883 123.528C38.1953 123.568 39.4573 122.334 39.4713 120.806C39.4863 119.251 38.3003 118.56 36.7463 118.59C35.2133 118.62 33.9763 119.301 33.9993 120.81C34.2193 122.257 35.2413 123.49 36.6883 123.528ZM45.6813 52.9002C45.6813 55.5052 45.6813 58.1102 45.6813 60.9052C46.3473 60.9052 46.8363 60.9052 47.3253 60.9052C58.8013 60.9052 70.2773 60.9042 81.7533 60.9072C84.1503 60.9082 84.8214 61.8162 84.1214 64.9602C82.5304 69.2722 80.9433 74.4502 79.3393 79.6232C78.2953 82.9922 77.2253 86.3532 76.1863 89.6542C84.2293 89.6542 91.9113 89.6542 99.8503 89.6542C99.8503 89.5602 99.8503 88.5602 99.8503 88.6502C99.8503 72.4932 99.8223 56.9212 99.8923 41.3492C99.8993 39.7862 99.4434 38.7712 98.5494 38.1002C95.7274 40.3132 92.9263 41.6522 89.5583 41.6432C86.1993 41.6332 83.3994 40.3072 81.3194 37.9012C78.6284 40.3662 75.8063 41.6492 72.4343 41.6402C69.7093 41.6322 66.2853 40.2762 63.9563 37.9352C59.8933 42.2002 52.5943 43.4932 46.8463 38.3402C45.9683 38.5042 45.6413 39.1872 45.6563 40.2282C45.7163 44.4522 45.6813 48.6762 45.6813 52.9002ZM45.7083 103.396C45.8293 107.175 48.7943 110.94 52.6423 110.107C66.5393 110.155 79.4644 110.155 92.8754 110.108C96.8774 110.94 99.8004 107.48 99.8434 103.49C99.8744 100.153 99.8524 97.2562 99.8454 94.3602C99.8444 94.8802 99.7774 93.8162 99.7434 93.5652C81.7114 93.5652 63.7613 93.5652 45.6813 93.5652C45.6813 94.9002 45.6813 94.4612 45.6813 94.8322C45.6843 97.6872 45.6173 100.544 45.7083 103.396ZM22.6143 89.7562C23.1693 89.7562 23.6163 89.7562 24.6293 89.7562C27.5803 89.7562 31.9893 89.7562 34.6163 89.7562C45.7923 89.7562 56.9673 89.7492 68.1423 89.7622C70.4493 89.7642 71.7614 89.2562 72.7014 87.5472C73.4594 86.1702 73.8494 84.5912 74.4574 82.9572C56.8194 82.9572 39.4633 82.9572 21.9623 82.9572C22.1823 85.2492 22.3933 87.4492 22.6143 89.7562ZM21.5933 79.1092C22.9393 79.1092 22.4613 79.1092 22.8283 79.1092C40.4993 79.1092 57.1794 79.1092 74.3554 79.1092C74.5204 79.1092 74.7174 79.1662 74.8454 79.9702C75.1624 78.9262 75.6124 78.7582 75.7164 78.4792C76.1334 77.3652 76.4384 76.2092 76.8274 74.9302C58.1914 74.9302 39.7193 74.9302 21.1723 74.9302C21.3173 76.3712 21.4523 77.7102 21.5933 79.1092ZM20.1803 64.7582C20.3863 66.8762 20.5833 68.8902 20.7963 71.7602C21.4393 71.7602 21.9303 71.7602 22.4213 71.7602C40.4423 71.7602 58.4624 71.7602 76.4834 71.7602C76.8154 71.7602 77.1674 71.1432 77.4714 71.5102C77.7404 70.9702 78.9693 70.7582 78.1723 70.5262C78.7953 68.6172 79.3623 66.6912 79.9493 64.7582C59.9653 64.7582 40.1083 64.7582 20.1803 64.7582ZM92.5114 3.82617C82.5724 3.80117 72.6333 3.81817 62.6943 3.81817C59.3403 3.81917 55.9853 3.76517 52.6323 3.83917C48.2423 3.93617 45.1653 7.62017 45.8143 11.9642C63.7893 11.9642 81.7734 11.9642 99.7484 11.9642C100.27 7.30217 97.1914 3.83817 92.5114 3.82617ZM109.681 23.4922C106.947 21.8202 104.224 18.6582 101.453 16.2922C101.949 15.9862 100.479 15.8542 99.9824 15.8532C81.7954 15.8312 63.6083 15.8332 45.4203 15.8452C45.2393 15.8452 44.5183 15.8602 44.2453 16.8702C41.2283 18.5952 38.2473 21.1462 35.4293 23.8672C60.1953 23.8672 85.2093 23.8672 109.935 23.8672C109.809 23.6762 109.763 23.5632 109.681 23.4922ZM113.313 27.7922C86.2094 27.7922 58.9173 27.7922 31.6763 27.7922C31.6763 29.6352 31.6073 31.4092 31.7113 33.1742C31.7523 33.8542 32.3493 34.6422 32.4693 35.1592C35.8843 39.2072 42.1693 38.6712 44.9433 34.1162C46.1473 32.2412 47.5693 32.2272 48.7543 34.7902C52.3593 39.2112 58.8153 39.1702 62.1083 33.9982C63.2053 32.2772 64.6844 32.2692 65.7844 33.9802C69.1474 39.2122 75.8054 39.2122 79.2164 34.1002C79.5164 33.5432 79.9594 33.5802 80.4464 32.8672C81.6484 32.3932 82.3384 33.1422 82.9444 34.9902C86.8894 39.7102 92.9403 39.1632 96.1013 34.2962C97.5023 32.1372 98.7423 32.1482 100.155 34.3322C103.099 38.7292 109.311 39.1382 112.6 35.1182C112.924 34.7222 113.262 34.1962 113.281 33.7182C113.358 31.7792 113.313 29.8362 113.313 27.7922ZM67.5964 99.9932C71.3294 99.9652 74.4693 99.9672 77.9053 99.9922C79.2453 100.1 80.2693 100.764 80.5993 101.919C79.9833 103.77 79.2294 103.718 77.8184 103.731C76.1214 103.747 74.4233 103.734 72.7263 103.734C71.2993 103.734 69.3314 103.75 67.6344 103.729C66.3244 103.713 65.5723 103.56 65.5313 101.956C65.4873 100.804 66.2754 100.4 67.5964 99.9932Z" fill="white"/>
</svg>
