<svg width="50" height="50" viewBox="0 0 127 111" fill="none" xmlns="http://www.w3.org/2000/svg">
<path fill-rule="evenodd" clip-rule="evenodd" d="M125.87 68.4599C123.758 73.6579 121.187 78.1799 117.423 81.9989C116.732 82.6989 116.501 83.3959 116.491 84.3559C116.468 86.5469 116.577 88.7939 116.136 90.9159C114.907 96.8239 110.1 100.771 103.734 100.85C94.2423 100.97 84.7473 100.891 75.2543 100.879C73.8033 100.878 73.1203 100.173 73.2403 99.1509C73.3603 97.8599 73.8063 97.2289 75.3013 97.2279C84.5913 97.2189 93.8813 97.2339 103.171 97.2189C107.839 97.2109 111.361 94.7439 112.445 90.5989C112.816 89.1809 112.814 87.6649 113.14 85.9179C101.285 92.9379 89.8813 92.9159 78.3753 85.8879C77.2653 87.1209 76.7603 88.1809 74.9443 89.4009C74.7433 89.6179 74.7033 90.5809 74.7233 90.3889C74.8043 91.7369 74.3603 92.8669 73.4173 93.8099C68.4913 98.7349 63.5933 103.687 58.6263 108.569C55.5443 111.598 50.8023 111.56 47.8623 108.604C44.8903 105.613 44.8743 100.936 47.9203 97.8529C52.8153 92.8989 57.7673 87.9989 62.6903 83.7209C63.6413 82.1219 64.7643 81.7119 66.1153 81.7899C66.4963 81.8119 66.9873 81.6479 67.2653 81.3919C68.4043 80.3469 69.4793 79.2339 70.6593 78.6509C67.1303 72.8569 65.3593 67.1109 65.2953 60.7869C55.6503 60.7869 44.9453 60.7869 34.6613 60.7869C34.6613 62.9539 34.6783 65.9609 34.6573 67.2389C34.6213 70.9489 32.1063 73.7539 28.4453 74.2009C24.8213 74.6439 21.2833 71.8929 20.9513 68.2459C20.7853 66.4269 20.8713 64.5859 20.8483 62.7539C20.8393 62.1069 20.8463 61.4599 20.8463 60.7139C14.1193 59.9999 8.76334 56.9679 4.65734 51.3679C4.62234 51.9289 4.58334 52.2689 4.58334 52.6079C4.57934 64.2929 4.57533 75.9789 4.58233 87.6649C4.58633 93.3369 8.38533 97.1889 14.7203 97.2139C22.3033 97.2489 30.5333 97.2229 38.7643 97.2229C38.9673 97.2229 39.1713 97.2219 39.3753 97.2229C41.1173 97.2319 42.2003 97.8639 41.9733 99.7609C41.9443 100.287 41.7003 100.886 39.3003 100.886C30.9883 100.889 22.6773 100.899 14.3653 100.884C6.28733 100.869 0.914335 95.4599 0.914335 87.3649C0.911335 68.9209 0.905335 50.4759 0.917335 32.3109C0.922335 25.6739 4.86033 20.6309 10.9063 19.2809C12.1253 19.8009 13.4113 18.9469 14.6663 18.9419C21.6733 18.9099 28.6803 18.9269 35.8933 18.9269C35.8933 18.3319 35.8693 17.7819 35.8983 17.2359C36.3403 14.6439 35.8613 11.9829 36.3993 9.47491C37.5313 4.19991 42.2493 0.398911 47.6543 0.299911C54.9043 0.167911 62.1603 0.144911 69.4103 0.281911C76.3903 0.413911 81.3973 5.73591 81.5183 12.8589C81.5513 14.8109 81.5233 16.7639 81.5233 18.9269C82.4703 18.9269 82.5143 18.9269 82.9823 18.9269C89.7453 18.9269 96.5093 18.9019 103.273 18.9339C109.763 18.9649 114.951 22.8509 116.127 28.9329C116.653 31.6529 116.46 34.5209 116.492 37.3239C116.502 38.2889 116.761 38.9689 117.444 39.6699C122.237 44.5819 125.4 50.4649 125.861 57.2839C125.899 57.5989 126.8 57.9049 126.84 58.2149C126.84 60.6009 126.84 61.7989 126.84 63.5899C125.756 65.2139 125.497 66.8569 125.87 68.4599ZM60.7163 90.2149C57.3753 93.5559 54.3703 96.8799 50.7163 100.219C48.9493 101.996 48.8423 104.347 50.4183 105.971C52.1603 107.617 54.4593 107.548 56.2663 105.758C59.4703 102.583 62.6523 99.3859 65.8403 96.1939C66.0003 96.3309 66.1263 95.8389 66.2193 95.7219C64.3743 93.8759 62.5993 92.9909 60.7163 90.2149ZM63.5713 87.4269C63.5703 87.4279 63.5713 87.4279 63.5703 87.4289C65.4223 89.2729 67.2243 91.6609 69.7203 92.9069C69.6743 92.2909 70.3453 91.6049 71.2443 90.6859C69.9853 89.4859 68.7683 88.3569 67.5863 87.1929C65.4833 85.1199 65.4923 85.1109 63.5713 87.4269ZM69.9103 84.6809C70.7773 84.9189 71.6233 85.7489 72.3113 86.4239C73.3073 85.4549 74.3403 84.4499 75.3673 83.4519C74.6173 82.7019 73.8183 81.9019 73.1803 81.1019C71.9503 82.1219 70.9033 83.1219 69.9103 84.6809ZM25.8543 69.9399C26.9433 70.7259 28.1383 70.8119 29.3073 70.1609C31.1813 69.1149 31.9103 67.3349 30.9333 65.4379C28.7723 65.4379 26.7143 65.4379 24.5613 65.4379C24.4923 67.1439 24.2743 68.7979 25.8543 69.9399ZM30.9493 55.1979C30.8753 53.5659 29.4763 52.3679 27.8563 52.3289C26.2563 52.2909 24.7443 53.3489 24.6433 54.8909C24.4973 57.1029 24.6053 59.3319 24.6053 61.6069C26.7423 61.6069 28.8253 61.6069 30.9723 61.6069C30.9723 59.4119 31.4403 57.3009 30.9493 55.1979ZM77.6703 11.2949C77.2773 7.28291 73.8083 4.32091 69.7793 3.96991C62.3703 3.85291 54.9573 3.85691 47.5483 3.97291C43.7853 4.31091 40.3193 7.48091 39.8403 10.7799C39.5033 13.4059 39.7753 16.1099 39.7753 18.8529C40.8863 18.8529 42.8903 18.8529 43.4723 18.8529C43.4723 16.9399 43.4703 15.1159 43.4733 13.2919C43.4783 9.66491 45.3243 7.81291 48.9603 7.80891C55.4353 7.80291 61.9103 7.80391 68.3853 7.80891C72.9703 7.81191 73.9363 9.64791 73.9453 13.3479C73.9493 15.1659 73.9453 16.9839 73.9453 18.8199C75.3193 18.8199 76.5463 18.8199 77.7153 18.8199C77.7153 16.2379 77.9113 13.7449 77.6703 11.2949ZM47.1683 18.8529C54.9393 18.8529 62.5413 18.8529 70.2793 18.8529C70.2793 16.9199 70.2903 15.5609 70.2763 13.1939C70.2653 11.7699 69.9763 11.4799 68.5493 11.4749C64.9233 11.4649 61.2973 11.4719 57.6713 11.4719C54.6973 11.4719 51.7243 11.4769 48.7503 11.4689C48.4003 11.4669 47.2253 11.5669 47.1933 12.4519C47.1153 14.5869 47.1683 16.7259 47.1683 18.8529ZM112.523 29.5019C111.621 25.1999 107.884 22.5939 102.977 22.5929C73.5233 22.5889 44.6803 22.5909 14.6133 22.5919C14.1653 22.5919 13.7163 22.5899 13.2703 22.6209C8.18634 22.9779 4.62034 26.7639 4.58334 31.8569C4.56634 34.2189 4.57334 36.5799 4.58134 38.9409C4.60334 44.9059 6.96633 49.7469 11.6633 53.4109C14.3153 55.4799 17.3493 56.6489 20.8383 56.9689C20.7963 54.9419 20.9533 53.4709 22.2033 51.4409C23.4683 49.8129 25.9703 48.8519 27.1643 48.6759C28.8523 48.5319 30.4023 48.9379 31.7753 49.9329C34.1783 51.6739 34.8663 54.1769 34.6743 56.9409C34.9413 56.9939 35.2103 57.2309 35.1013 57.2309C44.9603 57.2909 54.8193 57.2509 64.6783 57.5209C65.4553 57.5409 65.6013 56.7059 65.7023 56.4809C68.5763 37.3949 87.8793 25.8819 105.779 32.1989C108.172 33.4309 110.417 34.3069 112.973 35.4889C112.836 33.4549 112.927 31.4269 112.523 29.5019ZM95.6763 34.9509C80.9223 34.1289 68.9313 46.1479 68.9703 60.8649C69.8003 75.6139 81.1503 87.5569 95.7733 87.5229C110.507 87.4899 122.459 75.4589 122.415 60.7069C122.371 46.4209 110.334 34.6209 95.6763 34.9509ZM108.534 78.6819C101.179 84.4009 91.2823 84.1949 83.6263 79.2199C76.1533 74.3639 72.3013 65.1939 74.9403 56.5269C75.9783 47.4169 83.2703 40.6149 92.1713 39.1189C93.3323 38.9289 94.5153 38.8719 95.6873 38.7529C105.857 38.8249 114.704 45.7629 117.63 55.5819C117.405 57.6009 116.994 57.9489 115.906 58.2339C114.738 58.5399 113.939 57.9389 113.517 56.4409C111.514 49.3359 106.981 44.7219 99.7983 42.9619C89.4633 40.4299 79.3853 47.3649 77.5423 58.1319C75.8313 68.1289 83.3733 77.9409 93.5993 79.2009C102.829 79.9949 111.21 74.3879 113.436 65.4459C113.541 65.5409 113.631 64.6449 113.822 64.2949C114.325 63.3709 115.158 63.6809 116.99 63.4599C117.94 63.8739 117.401 64.6939 117.143 65.7689C115.855 71.1309 112.993 75.4549 108.534 78.6819Z" fill="white"/>
</svg>
