<svg width="50" height="50" viewBox="0 0 129 122" fill="none" xmlns="http://www.w3.org/2000/svg">
<path fill-rule="evenodd" clip-rule="evenodd" d="M128.299 76.4905C125.341 90.6755 122.382 104.86 119.423 119.45C119.66 120.758 118.51 121.224 116.788 121.224C101.949 121.226 87.1098 121.24 72.2698 121.188C71.3868 121.185 70.5048 120.65 69.2058 120.226C67.5418 121.32 65.2498 121.245 62.8878 121.239C49.9238 121.21 36.9608 121.227 23.9968 121.224C16.3748 121.223 11.2288 116.25 10.8498 108.636C9.98977 91.3975 9.86977 74.1605 8.20477 56.9225C7.85877 50.1775 7.52077 43.4315 7.17877 36.6865C7.16177 36.3605 7.13677 36.3305 7.10377 35.5395C5.81477 35.5395 4.57777 35.4845 3.34777 35.5555C2.15477 35.6245 1.14677 35.3615 0.384766 34.3975C0.384766 30.9775 0.384766 27.5575 0.384766 24.1375C0.455766 23.9925 0.557766 23.8545 0.591766 23.7015C1.80677 18.1635 5.18377 14.7895 10.7288 13.6315C11.4208 13.4875 11.6278 13.1825 11.6088 12.5475C11.4248 6.42449 16.5498 0.34049 25.6998 0.78049C37.7598 0.24649 50.5168 0.10549 63.2718 0.12949C69.6618 0.14149 74.8568 4.17949 75.6928 10.3685C76.2998 12.8565 76.9238 13.5705 79.1228 14.2055C83.9738 15.6055 87.3248 20.3585 87.4368 25.3975C87.4958 28.2205 87.4698 30.6505 87.4558 33.2775C87.4478 34.8165 86.7908 35.4945 85.2568 35.5295C83.7188 35.5655 82.1788 35.5375 80.4808 35.5375C80.2788 39.4175 80.8098 43.2175 79.8798 47.9205C82.3798 47.9205 84.5498 47.9205 86.1928 47.9205C86.1928 45.4225 86.1808 43.8075 86.1968 42.1925C86.2118 40.5705 86.8678 39.8905 88.4558 39.8775C90.6648 39.8585 92.8748 39.8595 95.8398 39.8775C96.6728 39.8895 97.3478 40.5585 97.3698 42.1795C97.3988 44.2605 97.3768 46.3415 97.3768 48.5195C98.8198 48.5195 100.171 48.5195 101.731 48.5195C101.731 46.8485 101.728 45.1585 101.731 43.4705C101.736 41.3155 102.328 40.7215 104.48 40.7175C106.523 40.7135 108.566 40.6985 110.608 40.7235C112.194 40.7425 112.903 41.4465 112.921 43.2405C112.945 45.1035 112.927 47.1845 112.927 49.4575C114.52 49.4575 116.43 49.4575 117.566 49.4575C120.853 49.4585 121.166 49.7655 121.166 52.9975C121.166 59.3785 121.166 65.7585 121.166 72.1385C121.166 72.5905 121.166 73.4105 121.166 73.6555C122.841 73.6555 124.411 73.6485 125.981 73.6575C127.994 73.6695 128.705 74.5445 128.299 76.4905ZM14.6678 108.626C14.9048 113.896 18.4748 117.379 23.7758 117.389C37.1568 117.414 50.5378 117.425 63.9188 117.356C65.3298 117.348 66.7458 116.798 68.1448 116.443C68.8028 116.275 68.9938 115.837 68.8358 115.106C67.8038 110.345 66.7848 105.58 65.8578 100.797C65.6458 99.7015 65.2088 99.4465 64.1528 99.4485C47.9788 99.4815 31.8048 99.4715 15.6308 99.4715C15.2198 99.4715 14.8098 99.4715 14.2388 99.4715C14.3878 102.638 14.5328 105.632 14.6678 108.626ZM14.2598 95.5715C30.9908 95.5715 47.7988 95.5715 64.6718 95.5715C64.6358 95.2725 64.6268 95.6705 64.5858 94.8695C63.3118 88.7975 62.3598 82.7265 60.7598 76.6555C60.3128 74.5235 60.9978 73.6655 63.1608 73.6565C64.7258 73.6505 66.2898 73.6555 67.8018 73.6555C67.8658 73.3675 67.8988 73.2855 67.8988 73.2045C67.9048 68.2845 67.9048 63.3645 67.9128 58.4435C67.9158 56.5235 68.5268 55.9175 70.4588 55.9115C72.6158 55.9055 74.7718 55.9105 76.9658 55.9105C76.9658 55.3005 76.9658 54.3005 76.9658 53.5315C55.2448 53.5315 33.6018 53.5315 11.8978 53.5315C12.6108 67.6065 13.3178 81.5815 14.2598 95.5715ZM71.8258 59.8035C71.8258 64.4795 71.8258 69.2905 71.8258 73.5865C73.5808 73.5865 75.2308 73.5865 76.9508 73.5865C76.9508 68.9675 76.9508 64.4195 76.9508 59.8035C75.2138 59.8035 73.5668 59.8035 71.8258 59.8035ZM11.7048 49.5215C33.2078 49.5215 54.5308 49.5215 75.9048 49.5215C76.1418 44.8615 76.3738 40.2945 76.6098 35.6475C54.6988 35.6475 32.8928 35.6475 10.9988 35.6475C11.2378 40.3555 11.4718 44.9515 11.7048 49.5215ZM63.1148 3.98149C50.2368 3.96449 37.3588 3.97449 24.4808 3.98149C23.8578 3.98249 23.2288 4.26049 22.6118 4.11149C18.2448 4.72049 14.7998 9.22449 15.5698 13.3485C34.3868 13.3485 53.2108 13.3485 72.1228 13.3485C72.4088 7.89049 68.6308 3.98949 63.1148 3.98149ZM83.5938 31.6265C83.5938 29.3355 83.7808 27.1575 83.5558 25.2105C83.5298 20.2475 79.4648 17.2755 74.4418 17.2735C54.1088 17.2675 33.7758 17.2705 13.4428 17.2725C13.2598 17.2725 12.6088 17.2805 12.1938 17.3105C8.61577 17.5735 5.40977 19.9265 4.67677 23.4225C4.12277 26.6205 4.23077 28.8425 4.39977 31.6265C30.7448 31.6265 57.1088 31.6265 83.5938 31.6265ZM86.9598 51.4305C84.3498 51.4305 82.7028 51.4305 81.1698 51.4305C81.1698 58.6105 81.1698 66.1085 81.1698 73.7185C82.9518 73.2825 84.1998 74.1725 84.7518 75.7555C85.2398 76.3465 85.5548 76.8165 86.9598 77.5035C86.9598 68.4935 86.9598 59.7795 86.9598 51.4305ZM93.3808 43.7375C92.2368 43.7375 91.2088 43.7375 90.2298 43.7375C90.2298 44.2855 90.2298 44.7745 90.2298 45.2625C90.2298 56.2305 90.2298 66.7835 90.2298 77.5445C90.2298 80.5455 90.2298 80.5455 93.6598 80.9095C93.1458 80.9195 93.2308 80.8945 93.3808 80.8795C93.3808 68.4435 93.3808 56.8905 93.3808 43.7375ZM101.731 53.9405C101.731 53.4625 101.731 52.9845 101.731 52.5225C100.174 52.5225 98.8218 52.5225 97.4288 52.5225C97.4288 61.8815 97.4288 71.1525 97.4288 80.7535C98.5828 80.2415 99.5168 79.8145 100.46 79.4105C101.46 78.9825 101.77 78.2895 101.761 77.1705C101.703 69.4275 101.731 61.6835 101.731 53.9405ZM108.974 44.6825C107.829 44.6825 106.774 44.6825 105.682 44.6825C105.682 54.4035 105.682 64.3705 105.682 73.6495C106.786 73.6495 107.81 73.6495 108.974 73.6495C108.974 63.8995 108.974 54.3085 108.974 44.6825ZM117.174 53.3865C115.738 53.3865 114.415 53.3865 113.34 53.3865C113.34 60.2185 113.34 66.9025 113.34 73.5575C114.495 73.5575 115.846 73.5575 117.174 73.5575C117.174 66.7735 117.174 60.8705 117.174 53.3865ZM108.868 77.4385C108.52 77.4315 107.618 77.7225 107.156 78.3575C100.817 87.5305 88.1298 87.1305 81.8248 78.2775C81.3798 77.6615 80.9318 77.4385 80.1878 77.4435C75.4768 77.4755 70.7668 77.4585 66.5598 77.4625C65.6978 77.4635 65.3388 77.5045 64.8788 77.5325C67.6688 90.8695 70.4368 104.102 73.2178 117.397C73.8258 117.397 74.3228 117.397 74.8188 117.397C87.9508 117.397 101.83 117.373 114.215 117.434C115.549 117.44 115.959 117.17 116.208 115.782C117.721 108.271 119.321 100.777 120.887 93.2765C121.975 88.6205 123.53 82.8455 124.171 77.4595C118.948 77.4595 113.908 77.4815 108.868 77.4385ZM110.761 99.9435C110.391 100.219 109.722 100.142 109.187 100.143C104.271 100.156 99.3558 100.15 94.4398 100.15C89.6078 100.151 84.7758 100.153 79.9438 100.148C79.4868 100.147 79.1998 100.157 78.5758 100.7C77.5978 99.8785 77.1398 99.2325 76.9928 98.2505C76.9708 97.2035 77.5808 96.5395 78.6048 96.3265C79.6998 96.2425 79.4338 96.2575 79.8488 96.2575C89.6378 96.2545 99.4278 96.2525 109.217 96.2625C109.751 96.2635 110.442 96.1885 110.783 96.4765C111.323 96.9325 111.928 97.6585 111.942 98.2835C111.955 98.8425 111.298 99.5405 110.761 99.9435ZM79.4638 105.229C86.3398 105.224 93.2158 105.221 100.92 105.232C101.835 105.234 102.86 106.447 102.312 107.82C101.934 108.765 101.177 109.63 100.212 109.59C96.7118 109.45 93.2108 109.54 89.7098 109.54C86.2928 109.55 82.8758 109.61 79.4588 109.52C77.8918 109.48 77.1498 108.383 76.9748 107.21C76.9338 105.986 77.8668 105.231 79.4638 105.229ZM43.7788 90.1945C35.2328 90.1925 28.1988 83.1535 28.1878 74.5925C28.1768 66.5005 35.2128 58.9895 43.7598 58.9675C52.3188 58.9445 59.3838 65.9615 59.4078 74.5085C59.4328 83.1355 52.3978 90.1955 43.7788 90.1945ZM43.8278 62.8505C37.3168 62.8415 32.6198 68.9505 32.7198 74.6035C32.8198 81.1165 37.3808 86.4025 43.8488 86.3515C50.3038 86.3015 55.5058 81.9605 55.5578 74.6375C55.6098 68.1535 50.3408 62.8595 43.8278 62.8505Z" fill="white"/>
</svg>
