<svg width="50" height="50" viewBox="0 0 120 120" fill="none" xmlns="http://www.w3.org/2000/svg">
<path fill-rule="evenodd" clip-rule="evenodd" d="M116.477 42.1294C114.469 42.1304 113.527 41.5194 113.496 40.1974C113.464 38.8374 114.457 38.1694 116.511 38.1704C118.458 38.1714 119.446 38.8484 119.434 40.1744C119.422 41.4974 118.466 42.1294 116.477 42.1294ZM113.168 36.4824C112.567 36.4124 111.797 35.9924 111.513 35.4964C111.23 35.1004 111.218 34.6204 111.515 33.5874C112.3 32.7664 112.792 32.2604 113.604 31.4824C114.834 30.6554 116.449 31.6444 116.477 33.1334C116.5 34.3934 114.41 36.6264 113.168 36.4824ZM109.499 32.2654C109.42 33.4024 108.653 34.1774 107.599 34.2054C106.567 34.2314 105.699 33.4734 105.583 32.3634C105.516 31.7134 105.533 31.5104 105.563 30.3964C105.622 29.1164 106.428 28.2824 107.556 28.2844C108.686 28.2874 109.458 29.1254 109.508 30.4124C109.519 30.6824 109.51 30.9524 109.51 31.2234C109.507 31.2234 109.505 31.2234 109.503 31.2234C109.503 31.5704 109.523 31.9194 109.499 32.2654ZM104.58 10.4544C104.156 10.4524 103.725 10.4624 103.312 10.3884C102.263 10.2004 101.563 9.34339 101.609 8.36739C101.656 7.36539 102.406 6.60739 103.479 6.51139C103.861 6.47739 104.25 6.50639 104.636 6.50639C106.608 6.48939 107.577 7.15139 107.552 8.48239C107.528 9.80939 106.552 10.4604 104.58 10.4544ZM99.5324 6.37739C98.9624 6.34839 98.2184 5.84939 97.9094 5.33939C97.5404 3.92839 97.7054 1.46239 99.2204 0.525391C99.4094 0.525391 99.7964 0.525391 100.183 0.525391C101.53 1.40339 102.217 4.24239 101.254 5.50939C100.892 5.98539 100.103 6.40639 99.5324 6.37739ZM95.6804 10.4284C94.9924 10.4884 94.2894 10.4894 93.6024 10.4184C92.4014 10.2924 91.6754 9.43839 91.7364 8.32839C91.7954 7.27339 92.5544 6.57139 93.7344 6.49939C94.8004 6.47839 94.4284 6.49639 94.7754 6.49439C95.4504 6.49339 95.3154 6.47939 95.5844 6.49539C96.8204 6.56739 97.6044 7.30339 97.6294 8.40439C97.6544 9.49239 96.8894 10.3244 95.6804 10.4284ZM85.5844 36.1834C82.3744 36.2234 79.1624 36.2244 75.9524 36.1804C74.5864 36.1624 73.8784 35.4324 73.8634 34.6404C73.8274 30.8524 73.8264 27.6394 73.8614 24.4274C73.8774 22.9964 74.5994 22.3344 76.5404 22.3124C77.6394 22.2894 79.2264 22.3074 80.8124 22.3074C82.3594 22.3064 83.9074 22.2914 85.4544 22.3104C86.9894 22.3304 87.7044 22.9794 87.7194 24.4724C87.7524 27.6454 87.7504 30.8204 87.7204 33.9934C87.7074 35.4374 87.1304 36.1654 85.5844 36.1834ZM83.7014 26.3424C81.7344 26.3424 79.8324 26.3424 77.9014 26.3424C77.9014 28.3174 77.9014 30.2184 77.9014 32.1214C79.8884 32.1214 81.7874 32.1214 83.7014 32.1214C83.7014 30.1474 83.7014 28.2744 83.7014 26.3424ZM51.5824 59.3184C50.5464 60.2474 49.4004 60.1834 48.6174 59.2644C47.8834 58.4034 47.9804 57.2594 48.9464 56.3864C55.4284 50.5354 61.9234 44.6984 68.4134 38.8554C69.1044 38.2334 69.9274 37.9074 70.7304 38.4484C71.2784 38.8174 71.6264 39.4854 72.1294 40.9904C71.6944 40.7944 71.4734 41.4034 71.4804 41.7884C64.5774 47.6514 58.8504 53.4914 51.5824 59.3184ZM62.2104 28.2434C58.6984 28.2584 56.5304 25.6154 56.6304 22.2914C56.7304 19.5304 58.7294 16.3884 61.9654 16.3694C65.2434 16.3504 67.9274 19.4704 67.9184 22.3514C67.9104 25.6244 65.3034 28.2294 62.2104 28.2434ZM61.9534 20.3434C60.8764 20.3694 59.9844 21.3154 60.2304 22.3904C60.6204 23.4934 60.9674 24.3144 62.9004 24.2664C63.1584 24.2214 63.9644 23.3764 63.9584 22.3114C63.9524 21.2274 63.2504 20.3174 61.9534 20.3434ZM45.5004 49.9194C44.6434 51.9884 43.7774 54.5304 42.9104 56.1184C42.2214 57.7594 41.2424 58.3344 40.2904 57.8174C38.8634 57.3204 38.6374 56.2064 39.2894 54.5414C40.8084 50.6614 42.5074 46.8354 43.7604 42.8694C46.5754 33.9574 46.8634 24.8714 44.9944 15.7174C44.9864 15.6794 44.9774 15.6414 44.9694 15.6034C44.5994 13.7784 45.6104 12.7194 46.3524 12.4314C47.6164 12.1484 48.5894 12.9834 48.8444 14.8014C49.4164 18.8874 49.9024 22.9854 50.4244 27.7804C50.3154 27.9204 50.2074 27.1064 50.9904 27.1204C50.1004 35.2904 48.5214 42.6204 45.5004 49.9194ZM45.8104 8.91039C43.9014 8.96439 41.6384 8.18339 40.6634 6.31439C39.6724 4.41539 40.3834 2.50039 42.2624 1.19039C42.5954 0.836391 42.9484 0.688391 43.2924 0.525391C43.9114 0.525391 44.5304 0.525391 45.1504 0.525391C46.2444 1.94039 47.2964 1.69339 47.8064 2.93039C48.6234 4.91139 47.7534 7.20339 45.8104 8.91039ZM36.3894 60.5134C44.3904 70.2754 53.6064 78.6154 64.8704 84.5024C67.7264 85.9954 70.7014 87.1884 73.9554 87.4814C74.6044 87.5394 75.2714 87.5284 75.9184 87.4504C78.5604 87.1914 79.3294 86.3804 79.2624 83.8754C79.1984 81.7824 78.6674 79.7014 78.3084 77.6204C78.2164 77.9304 77.9324 76.5974 77.8544 76.6904C77.7054 75.6504 78.1444 74.3294 79.9104 73.9574C80.4004 73.5984 81.9404 73.9354 81.4694 74.8504C82.9274 78.4024 83.9294 82.5404 82.9624 85.9214C82.3494 88.3744 80.7694 90.5204 78.3904 90.9454C70.9424 93.7414 63.4854 96.5154 56.4404 99.3294C38.8084 105.846 21.5794 112.382 4.34641 118.908C2.16741 119.733 1.76641 119.638 0.566406 118.83C0.566406 117.695 0.566406 117.308 0.566406 116.921C1.49141 113.251 2.42041 109.583 3.34141 105.913C3.70841 104.45 4.43041 102.98 4.42141 101.52C4.79841 100.6 5.67441 99.4294 6.88841 99.6974C8.60041 99.9564 8.59741 100.988 8.25441 102.427C7.36441 106.149 6.45341 109.866 5.55341 113.585C5.51941 113.726 5.50841 113.874 5.45441 114.239C10.9854 112.146 16.3744 110.106 21.7514 108.72C20.3314 106.441 18.8714 104.943 17.6144 103.289C13.6064 98.1704 11.6784 91.9834 11.2634 85.4114C11.7404 82.4374 10.7654 79.4714 10.5534 76.4994C10.4324 74.8184 11.1184 73.9124 12.4254 73.8754C13.6954 73.8394 14.3594 74.6564 14.5114 76.2644C14.9524 80.9234 15.1514 85.6274 15.9614 90.2234C17.1054 96.7144 20.6434 101.93 25.7174 106.99C25.9024 106.251 26.2874 106.326 26.5054 106.243C33.9524 103.44 41.3904 100.613 48.8284 97.7874C48.8464 97.7804 48.8484 97.7304 48.8884 97.6044C48.9304 97.1914 47.2734 96.7854 46.4714 96.3444C29.2954 86.8984 18.9084 72.5174 15.2764 53.2644C15.1374 52.5254 15.3694 51.5444 15.7934 50.9294C16.7304 50.5234 17.2804 50.3924 17.6474 50.4564C18.5624 50.5514 18.9194 51.3524 19.1044 52.1984C19.5834 54.3874 19.9264 56.6184 20.5804 58.7544C25.8884 76.9704 36.9204 88.2924 53.6474 95.3064C54.4504 95.4734 54.5914 95.6104 54.9624 95.4734C59.4144 93.8274 63.8464 92.1264 68.2244 90.4614C65.6054 89.1554 62.9454 87.9664 60.4184 86.5434C49.4314 80.3544 40.4454 71.8614 32.6114 62.8104C28.4124 56.8374 24.6904 51.2844 22.2464 44.9794C21.3804 41.8594 20.1344 38.6554 20.7204 35.2414C21.5004 30.7054 26.1634 27.6874 30.6174 28.8194C31.7414 29.1044 32.3274 29.9384 32.1794 31.3904C32.3804 32.8404 31.1634 32.7514 30.1804 32.6864C29.5944 32.6624 29.1694 32.5904 28.7474 32.6064C26.1194 32.7054 24.5874 34.2244 24.4984 36.8464C24.4144 39.2964 25.1194 41.5914 26.1304 43.8264C28.4814 50.1004 32.2064 55.4094 36.3894 60.5134ZM20.1734 14.6814C19.8674 15.1004 19.6754 15.6254 19.7284 16.7304C19.9054 17.5664 20.2174 19.4304 20.4794 20.5264C20.6424 21.4484 20.6074 22.3194 19.7654 22.9294C18.9354 23.5314 18.1084 23.3574 17.2684 22.8964C15.9484 22.1734 14.6334 21.4314 13.2634 20.8144C12.8224 20.6164 12.1394 20.6234 11.6954 20.8234C10.3254 21.4394 9.70041 22.1754 7.68941 22.9014C6.84841 23.3644 6.19041 23.5464 5.19441 22.9434C4.41441 22.3724 4.29841 21.5744 4.46841 20.6624C4.75141 19.1444 5.36041 17.6224 5.19941 16.8904C5.24941 15.6114 5.42041 14.9694 4.72141 14.6124C3.38441 13.1254 1.95941 11.7184 0.566406 10.2824C0.566406 9.89539 0.566406 9.50839 0.566406 9.12039C1.11041 8.18739 1.89441 7.73339 3.10041 7.64239C4.42141 7.52539 5.83841 7.29239 7.23441 6.99939C7.68041 6.90639 8.20541 6.55039 8.43141 6.16139C9.11041 4.99639 9.57441 3.70239 10.2884 2.56439C10.7724 1.79339 11.5374 1.19839 12.1764 0.525391C12.4084 0.525391 12.6414 0.525391 12.8734 0.525391C13.4944 1.21639 14.1304 1.89439 14.7274 2.60639C14.9204 2.83639 15.7004 3.13739 15.1404 3.43039C15.8674 6.46739 17.9574 7.54039 20.8734 7.49939C21.4444 7.49139 22.8004 7.52439 22.5764 7.76639C23.1874 8.65039 23.9844 8.51239 24.1484 9.60039C24.3294 9.66739 24.9404 10.6374 23.6724 11.1404C22.6084 12.4054 21.3024 13.4654 20.1734 14.6814ZM12.4724 7.33039C11.6824 9.88239 9.93041 11.2394 6.90841 10.9484C7.86741 12.9304 8.94641 12.8854 9.28441 13.9204C9.62941 14.9774 9.24741 16.2714 9.15941 17.9054C11.4514 15.6444 13.5984 15.9714 15.9194 17.6264C14.7914 14.8234 15.6414 12.7664 18.5104 11.9004C14.9994 11.2624 13.2924 9.86039 12.4724 7.33039ZM113.14 43.8534C114.372 43.6684 116.497 45.9004 116.469 47.5904C116.268 47.8444 115.959 48.5924 115.434 48.8044C114.855 49.3704 113.966 48.9844 113.414 48.6834C112.701 48.2964 112.3 47.6264 111.64 46.9134C111.337 46.3584 111.254 45.4434 111.511 44.8924C111.747 44.3884 112.537 43.9434 113.14 43.8534ZM115.482 77.8344C115.47 81.8104 112.825 83.7194 109.569 83.7344C106.231 83.7484 103.606 81.1254 103.617 77.7884C103.628 74.5194 106.244 71.8844 109.498 71.8654C112.772 71.8454 115.494 74.5604 115.482 77.8344ZM109.577 75.8284C108.5 75.8004 107.591 76.6974 107.583 77.7964C107.575 78.8774 108.361 79.7144 109.431 79.7644C110.526 79.8154 111.466 78.9654 111.512 77.8834C111.557 76.8274 110.643 75.8564 109.577 75.8284ZM109.491 47.9444C109.523 48.3274 109.496 48.7164 109.496 49.1024C109.512 51.9004 108.872 52.5204 107.551 52.5304C106.227 52.5404 105.548 51.6204 105.557 49.1094C105.56 48.6104 105.547 48.9504 105.658 47.6154C105.883 46.6454 106.796 45.9834 107.716 46.1224C108.74 46.2764 109.399 46.8604 109.491 47.9444ZM99.8124 69.8624C100.486 70.1144 101.203 70.7694 101.47 71.4154C101.668 71.8924 101.356 72.9334 100.929 73.2284C100.359 73.6224 99.3964 73.7844 98.7114 73.6134C96.5054 73.6104 94.3754 72.2104 92.1704 71.6534C83.2554 69.4024 74.2764 69.3194 65.2594 71.2004C63.7414 71.3064 62.2154 71.5574 60.6904 71.8004C59.3334 72.1604 58.3264 71.3854 58.1394 70.2424C57.9354 68.9984 58.6574 68.1364 60.9004 67.8874C65.8414 66.8854 71.5814 65.7954 74.9664 65.8394C85.1384 65.9024 92.6094 67.1694 99.8124 69.8624ZM106.69 38.2934C107.8 38.4194 107.455 39.1894 107.558 40.8204C107.522 41.2604 106.776 41.8044 105.851 42.2424C101.7 44.5064 96.2974 46.7864 91.5214 49.5904C82.8394 53.1904 74.1574 57.3214 65.4764 61.4524C65.2674 61.5514 65.6504 61.6704 64.8494 61.7514C63.7244 62.1754 62.6314 61.7794 62.1904 60.7974C61.7424 59.8014 62.1234 58.6964 63.2074 58.1664C65.8774 56.8584 68.5734 55.6044 71.2574 54.3244C82.2014 49.1064 93.1414 43.8794 104.97 38.6864C104.691 38.4044 105.436 38.2094 106.69 38.2934ZM97.6394 13.4144C97.6394 13.6704 97.6204 12.7184 97.6514 12.3734C97.7564 11.1884 98.5814 10.4334 99.7044 10.4714C100.783 10.5074 101.512 11.2524 101.585 12.4124C101.607 12.7594 101.589 13.1074 101.589 13.4544C101.594 15.4624 100.977 16.3614 99.6074 16.3484C98.2494 16.3354 97.6394 15.4264 97.6394 13.4144ZM103.848 34.5694C103.76 35.1704 103.316 35.9594 102.813 36.1954C102.267 36.4534 101.354 36.3724 100.803 36.6904C100.9 35.6774 99.4194 35.7004 99.2904 34.2944C98.7274 33.7424 98.6684 32.8514 98.9024 32.2744C99.1194 31.7424 99.8704 31.4274 100.143 31.2104C101.789 31.1764 104.28 33.3334 103.848 34.5694ZM92.4994 85.8494C98.5704 86.9194 102.962 89.3194 107.159 93.1304C107.931 93.8314 108.701 94.5534 109.358 95.3604C111.351 97.8054 113.387 100.175 115.667 102.394C119.788 106.405 120.465 113.212 117.679 118.206C117.37 119.358 116.3 119.763 114.983 119.262C113.905 118.733 113.592 117.629 114.17 116.393C115.87 112.757 115.758 109.229 113.856 106.608C113.497 107.899 113.264 109.198 112.776 110.394C111.555 113.387 109.247 115.64 106.35 115.284C102.72 115.51 100.136 114.1 98.5564 111.177C97.4004 108.308 97.2154 105.433 99.1204 102.757C100.702 100.536 102.858 99.9904 105.473 98.3454C105.695 98.2814 105.92 98.2274 106.138 98.1534C106.201 98.1324 106.245 98.5804 106.353 97.9584C102.917 94.1424 98.7354 91.5744 93.8054 90.2144C93.1354 90.2904 92.4524 89.8914 91.7724 89.7494C90.3464 89.4534 89.5704 88.5194 89.8094 87.3724C90.5804 86.1764 91.8804 85.5774 92.4994 85.8494ZM106.45 102.31C104.458 102.844 103.168 103.792 102.236 105.199C100.946 107.147 101.51 109.694 103.485 110.844C105.479 112.5 108.2 111.287 108.998 109.16C109.456 108.166 109.614 107.34 109.907 105.965C109.856 105.948 109.804 105.93 109.752 105.913C109.715 105.412 109.725 104.902 109.631 104.412C109.216 102.256 108.121 101.613 106.45 102.31Z" fill="white"/>
</svg>
