<svg width="34" height="24" viewBox="0 0 34 24" fill="none" xmlns="http://www.w3.org/2000/svg">
<path d="M5.60945 15.6735H0.0144043V0.555416H5.60945V15.6735ZM1.19277 14.4905H4.42648V1.73381H1.19277V14.4905Z" fill="#6D2F91"/>
<path d="M33.2513 15.6735H27.6562V0.555416H33.2513V15.6735ZM28.8346 14.4905H32.0684V1.73381H28.8346V14.4905Z" fill="#6D2F91"/>
<path d="M15.379 23.1092C14.5797 23.1092 13.7257 22.794 12.9127 21.981C11.3917 20.4601 4.74161 14.4357 4.6731 14.3717L5.46784 13.4948C5.74189 13.7415 12.2047 19.6014 13.7485 21.1406C15.2146 22.6067 16.5483 21.6613 17.0553 21.1863L17.8637 22.045C17.2288 22.6433 16.3428 23.1046 15.379 23.1046V23.1092Z" fill="#6D2F91"/>
<path d="M19.5171 22.7529C18.864 22.7529 18.2108 22.4743 17.6947 21.9582C16.5026 20.7661 13.8216 18.4961 13.7942 18.4733C13.543 18.2632 13.5156 17.8886 13.7257 17.642C13.9358 17.3908 14.3103 17.3634 14.5569 17.5735C14.6666 17.6694 17.3065 19.8983 18.5306 21.1223C18.9097 21.5014 19.3801 21.6476 19.8186 21.5288C20.152 21.4375 20.4078 21.2046 20.4763 20.9214C20.5539 20.6108 20.4032 20.2545 20.0515 19.912C18.0419 18.2083 16.2378 16.5184 16.2195 16.5001C15.982 16.2763 15.9683 15.9018 16.1921 15.6643C16.4159 15.4268 16.7904 15.4131 17.0279 15.6369C17.0462 15.6552 18.8366 17.3314 20.828 19.0213L20.8554 19.0442C21.7734 19.9257 21.7323 20.7798 21.6227 21.2091C21.4491 21.9034 20.8782 22.4606 20.1337 22.6661C19.9328 22.7209 19.7272 22.7483 19.5217 22.7483L19.5171 22.7529Z" fill="#6D2F91"/>
<path d="M22.8832 21.4695C22.2073 21.4695 21.4125 21.1909 20.5995 20.5012C20.3529 20.2911 20.3209 19.9165 20.531 19.6699C20.7411 19.4233 21.1157 19.3913 21.3623 19.6014C22.3763 20.4601 23.2258 20.4144 23.5866 20.0079C23.8561 19.7019 23.8835 19.1629 23.3309 18.6468C21.8054 17.2264 18.663 14.3169 18.631 14.2895C18.3935 14.0703 18.3753 13.6958 18.5991 13.4537C18.8183 13.2162 19.1928 13.1979 19.4349 13.4217C19.4668 13.4491 22.6138 16.3586 24.1393 17.7836C25.2172 18.7884 25.1258 20.0581 24.4727 20.7935C24.1119 21.2 23.5546 21.4695 22.8878 21.4695H22.8832Z" fill="#6D2F91"/>
<path d="M25.0985 19.4689C24.4591 19.4689 23.8242 19.1721 23.3035 18.6194C23.0797 18.3819 23.0934 18.0074 23.3309 17.7836C23.5684 17.5598 23.943 17.5735 24.1668 17.811C24.5276 18.1947 24.9341 18.3545 25.3177 18.2586C25.6603 18.1764 25.9435 17.8932 26.044 17.5461C26.1582 17.135 26.0074 16.692 25.6146 16.2992C24.0023 14.6869 18.3251 8.46612 16.8179 6.80816C16.3565 7.16442 15.5298 7.82213 14.4611 8.78585C13.1457 9.97337 11.2502 9.69019 10.3093 8.68537C9.83433 8.17839 9.61965 7.51611 9.70187 6.82644C9.79321 6.08652 10.2089 5.34661 10.9396 4.6341C11.1315 4.44684 11.3598 4.20019 11.5973 3.94442C12.8671 2.56964 14.7808 0.491482 17.5852 0.491482C19.6816 0.491482 20.9468 0.916242 22.1663 1.32731C23.573 1.80231 25.03 2.29103 27.9668 2.21338C28.2957 2.20424 28.5652 2.46002 28.5743 2.78887C28.5834 3.11316 28.3276 3.38719 27.9988 3.39633C24.8519 3.48311 23.2259 2.93503 21.7872 2.45089C20.6042 2.05353 19.4852 1.67443 17.5806 1.67443C15.2923 1.67443 13.6572 3.45115 12.4606 4.74828C12.2094 5.01776 11.9764 5.27353 11.7572 5.48363C10.8117 6.40167 10.5971 7.27405 11.1634 7.87694C11.7115 8.46157 12.8762 8.62142 13.6663 7.9089C15.4111 6.33316 16.5073 5.56584 16.5529 5.5293L16.9777 5.23243L17.3294 5.61608C17.4025 5.6983 24.6418 13.6547 26.4459 15.4588C27.1447 16.1576 27.4096 17.03 27.1812 17.8612C26.9666 18.624 26.3637 19.2177 25.6009 19.405C25.4365 19.4461 25.2675 19.4644 25.0985 19.4644V19.4689Z" fill="#6D2F91"/>
<path d="M13.2963 3.3598H4.99739C4.6731 3.3598 4.4082 3.09489 4.4082 2.7706C4.4082 2.44632 4.6731 2.18142 4.99739 2.18142H13.2963C13.6206 2.18142 13.8855 2.44632 13.8855 2.7706C13.8855 3.09489 13.6206 3.3598 13.2963 3.3598Z" fill="#6D2F91"/>
<path d="M26.0256 16.4773C25.8794 16.4773 25.7287 16.4225 25.6145 16.3129C25.3816 16.0891 25.3724 15.7146 25.5962 15.4771L27.5465 13.4491C27.7703 13.2162 28.1449 13.2071 28.3824 13.4309C28.6153 13.6547 28.6244 14.0292 28.4006 14.2667L26.4503 16.2946C26.3362 16.4134 26.1809 16.4773 26.0256 16.4773V16.4773Z" fill="#6D2F91"/>
</svg>
