<svg width="24" height="24" viewBox="0 0 71 71"  fill="none" xmlns="http://www.w3.org/2000/svg">
<path fill-rule="evenodd" clip-rule="evenodd" d="M67.2092 34.3495C67.2092 52.3875 52.3982 67.9005 34.3602 67.9005C16.3222 67.9005 1.69922 52.3875 1.69922 34.3495C1.69922 16.3115 16.3222 1.68945 34.3602 1.68945C52.3982 1.68945 67.2092 16.3115 67.2092 34.3495Z" stroke="#fa8909" stroke-width="2.7"/>
<path fill-rule="evenodd" clip-rule="evenodd" d="M46.8621 46.8471L46.2821 46.2691L34.8971 34.9231L44.6191 25.2351C44.6221 25.2331 44.6261 25.2321 44.6281 25.2281L45.1911 24.6661C45.1951 24.6641 45.1971 24.6611 45.1991 24.6571C45.7881 23.9421 46.1411 23.2901 46.1411 22.3001C46.1411 21.9011 46.1361 21.7761 46.1231 21.6511C45.9441 19.6641 44.3581 18.8301 42.3641 17.9051C42.2381 17.8921 42.1121 17.8861 41.9831 17.8861C40.9811 17.8861 40.6501 18.2381 39.3481 18.8261L29.2311 28.9081V22.7001C29.2311 17.9511 25.9321 14.6631 21.8621 14.6631H20.9141V54.2631H22.1471C26.5901 54.2631 29.2311 51.1021 29.2311 47.2021V40.9391L40.4311 52.1001C40.4321 52.1041 40.4341 52.1081 40.4381 52.1091L41.2001 52.6711C41.4001 52.6751 41.7001 52.6771 41.1101 52.6781C41.5501 52.7181 41.1031 52.7541 41.1511 52.7891C41.8441 53.3091 42.7091 53.6181 43.6461 53.6181C43.7761 53.6181 43.9011 53.6131 44.2701 53.6001C44.8181 53.5301 45.5431 53.2381 46.1411 52.7891C47.5601 52.1041 47.6791 51.5201 47.7861 49.8531C47.7991 49.7281 47.8051 49.6031 47.8051 49.4741C47.8051 48.4761 47.4521 47.5621 46.8621 46.8471ZM41.9871 51.5661C41.8221 51.4391 41.6741 51.2921 41.5471 51.1281L39.5071 49.9401L30.9201 39.7121L29.2311 38.8541C28.6851 38.3101 27.7521 38.6951 27.7521 39.4641V47.4481C27.7521 50.3981 25.3531 52.7891 22.3931 52.7891V16.1371C25.3531 16.1371 27.7521 18.5281 27.7521 21.4781V29.8051C27.7521 30.7871 28.9441 31.2791 29.6411 30.5851L39.8841 20.3771C40.1101 20.2131 40.1591 20.6501 40.3231 19.9381C41.2361 19.2161 42.6301 19.7601 43.9421 20.7801C44.9471 21.3861 44.8071 22.7751 44.8301 23.6851C43.9551 23.8481 43.8071 23.9961 43.6431 24.1231L33.8511 33.8811L32.8051 34.9231L43.2661 45.3481L45.3061 47.3821C45.4711 47.5091 45.6181 47.6561 45.7461 47.8201C46.4701 48.7301 46.6111 50.1181 45.6051 51.4261C44.2931 52.4281 42.9001 52.2881 41.9871 51.5661Z" stroke="#fa8909" stroke-width="2"/>
</svg>
