<svg width="24" height="24" viewBox="0 0 70 69" fill="none" xmlns="http://www.w3.org/2000/svg">
<mask id="path-1-inside-1_603_7" fill="white">
<path fill-rule="evenodd" clip-rule="evenodd" d="M57.5049 50.6055C57.3011 50.9715 57.1899 51.3817 57.1809 51.8005C57.1519 54.2305 57.1689 56.6595 57.1659 59.8995C57.1639 60.2845 56.6909 60.7565 55.4839 60.7645C54.3819 60.7725 53.2789 60.7845 52.1779 60.7575C51.7619 60.7475 51.5359 60.8985 51.3339 61.2565C50.2379 63.1915 49.1159 65.1145 48.1999 67.3995C47.3549 68.1575 46.7369 68.3245 45.6179 67.6785C41.8239 65.4875 38.3599 63.2855 34.2299 61.1145C33.8431 60.9002 33.409 60.7854 32.9669 60.7805C22.7549 60.7625 12.5439 60.7695 2.33186 60.7555C1.89886 60.7545 1.41986 60.6815 1.44986 60.4845C0.516857 60.2055 0.463857 59.6355 0.464857 59.6795C0.472857 52.4545 0.469857 45.8405 0.469857 39.2265V16.6865C0.469857 15.2965 0.890857 14.8665 2.27386 14.8655C5.51286 14.8615 8.75186 14.8525 11.9899 14.8755C12.4809 14.8785 12.7529 14.7275 12.9969 14.3005C15.3289 10.2245 17.6819 6.16052 20.2999 2.92952C20.7769 0.798521 21.3129 0.644521 22.5909 1.38152C30.2009 5.76952 37.8079 10.1655 45.4249 14.5415C45.7559 14.7315 46.1779 14.8465 46.5599 14.8495C49.4829 14.8755 52.4079 14.8615 55.3319 14.8645C56.7529 14.8665 57.1659 15.2885 57.1669 16.7235C57.1669 18.2895 57.1929 19.3335 57.1539 20.6375C57.1389 21.1495 57.2909 21.4295 57.7459 21.6895C61.2809 23.6995 64.8029 25.7335 68.3139 27.7865C68.7809 28.5995 69.1639 28.4775 69.5859 28.8285V29.6385C65.5549 36.6255 61.5199 43.6105 57.5049 50.6055V50.6055ZM46.1479 64.8565L48.4799 60.8055H39.4189L39.3649 60.9445L46.1479 64.8565ZM21.9689 4.13252L15.8029 14.8205H40.2519L40.2899 14.7125L21.9689 4.13252V4.13252ZM54.4249 17.6205H3.19086V58.1195H54.4249V17.6205ZM57.2169 24.4865V45.6785C60.3149 40.3135 63.3319 35.8795 66.3919 29.7875C63.3359 28.2195 60.2989 26.2675 57.2169 24.4865V24.4865ZM8.23186 20.8055C12.9119 20.8025 17.5909 20.8035 22.2699 20.8065C22.5169 20.8065 22.7679 20.8095 23.8999 20.8525C23.6369 20.9645 24.8099 21.5055 24.8899 22.1355C24.9699 22.7665 23.6699 23.3205 23.4099 23.4455C22.7579 23.5015 22.4599 23.5015 22.1689 23.5015C18.1199 23.5055 14.6999 23.5045 10.2099 23.5045H9.13986V42.6885C9.33986 42.4185 9.48086 42.2385 9.61086 42.4995C12.1689 38.3505 14.7249 34.6515 17.2829 30.9515C18.2229 29.5915 19.1589 29.6035 20.9799 30.9905C23.4989 36.1995 26.8979 41.4995 30.2979 46.7895C30.4329 46.2775 30.5749 46.4725 30.7499 46.7215L35.8219 39.3915C36.4099 38.5405 36.9949 37.6875 37.5859 36.8385C38.3799 35.6995 39.3899 35.6935 40.1659 36.8385C42.7779 40.6905 45.3809 44.5485 47.9889 48.4035C48.1229 48.6025 48.2659 48.7955 48.4829 49.0995V23.5045H47.6719L35.5229 23.5035C35.2979 23.5035 35.7199 23.5115 34.8489 23.4905C34.6099 23.4155 33.5319 22.8555 33.5469 22.1255C33.5619 21.4185 34.7299 20.8975 34.8369 20.8235C35.3799 20.8035 35.2409 20.8055 35.4429 20.8055C40.7799 20.8035 44.7119 20.8025 49.3459 20.8055C50.8229 20.8055 51.2269 21.2125 51.2269 22.6865V52.9255C51.2269 54.4135 50.8249 54.8255 49.3629 54.8255H8.26186C6.82686 54.8255 6.40986 54.4075 6.40986 52.9815V22.6085C6.40986 21.2335 6.83686 20.8065 8.23186 20.8055ZM32.6329 49.5105C33.6399 50.2205 33.5749 50.8815 34.6999 51.5905C34.2619 52.7995 34.5659 52.1395 35.4799 52.1365C38.8489 52.1175 42.6489 52.1265 46.4499 52.1245C46.6669 52.1245 46.8849 52.1035 47.2159 52.8695C44.4079 47.9315 41.6579 43.8615 38.9019 39.7835C38.8239 39.8515 38.7619 39.8855 38.7259 39.9385C36.6789 42.8945 34.6289 45.8495 32.6049 48.8215C32.4979 48.9785 32.5259 49.3335 32.6329 49.5105V49.5105ZM31.9199 52.7995C26.9249 45.9145 22.8219 39.8445 18.6959 33.7405C18.5789 33.8665 18.5119 33.9235 18.4639 33.9935C15.4089 38.4085 12.3539 42.8245 9.30486 47.2435C9.20786 47.3835 9.12086 47.5675 9.11886 47.7315C9.10486 49.1675 9.11086 50.6035 9.11086 52.7995H31.9199ZM30.1979 35.3815C27.8479 35.4055 25.8779 33.4785 25.8509 31.1275C25.8423 30.5583 25.9467 29.9931 26.1581 29.4646C26.3695 28.936 26.6836 28.4547 27.0823 28.0484C27.4811 27.6422 27.9565 27.319 28.4809 27.0978C29.0054 26.8766 29.5686 26.7616 30.1379 26.7595C32.5139 26.7435 34.4569 28.6395 34.4849 30.9995C34.4917 31.5689 34.3862 32.1341 34.1744 32.6626C33.9625 33.1912 33.6485 33.6727 33.2503 34.0798C32.8521 34.4868 32.3775 34.8113 31.8537 35.0347C31.33 35.258 30.7673 35.3759 30.1979 35.3815ZM30.1169 29.4645C29.2399 29.4875 28.5519 30.1915 28.5519 31.6495C28.5529 31.9575 29.2879 32.6815 30.1849 32.6725C31.8299 32.6625 31.8019 31.9235 31.7829 31.3095C31.7639 30.1315 31.2899 29.4415 30.1169 29.4645V29.4645ZM28.8109 23.4915C28.5299 23.4875 27.4409 22.8485 27.4739 22.9695C27.5059 21.3615 28.1119 20.8055 28.8579 20.8245C29.0324 20.8274 29.2046 20.8647 29.3647 20.9342C29.5248 21.0037 29.6697 21.1042 29.7909 21.2298C29.9121 21.3553 30.0074 21.5036 30.0712 21.6661C30.135 21.8285 30.1662 22.002 30.1629 22.1765C30.154 22.5289 30.0075 22.8638 29.7548 23.1096C29.5022 23.3553 29.1633 23.4924 28.8109 23.4915Z"/>
</mask>
<path fill-rule="evenodd" clip-rule="evenodd" d="M57.5049 50.6055C57.3011 50.9715 57.1899 51.3817 57.1809 51.8005C57.1519 54.2305 57.1689 56.6595 57.1659 59.8995C57.1639 60.2845 56.6909 60.7565 55.4839 60.7645C54.3819 60.7725 53.2789 60.7845 52.1779 60.7575C51.7619 60.7475 51.5359 60.8985 51.3339 61.2565C50.2379 63.1915 49.1159 65.1145 48.1999 67.3995C47.3549 68.1575 46.7369 68.3245 45.6179 67.6785C41.8239 65.4875 38.3599 63.2855 34.2299 61.1145C33.8431 60.9002 33.409 60.7854 32.9669 60.7805C22.7549 60.7625 12.5439 60.7695 2.33186 60.7555C1.89886 60.7545 1.41986 60.6815 1.44986 60.4845C0.516857 60.2055 0.463857 59.6355 0.464857 59.6795C0.472857 52.4545 0.469857 45.8405 0.469857 39.2265V16.6865C0.469857 15.2965 0.890857 14.8665 2.27386 14.8655C5.51286 14.8615 8.75186 14.8525 11.9899 14.8755C12.4809 14.8785 12.7529 14.7275 12.9969 14.3005C15.3289 10.2245 17.6819 6.16052 20.2999 2.92952C20.7769 0.798521 21.3129 0.644521 22.5909 1.38152C30.2009 5.76952 37.8079 10.1655 45.4249 14.5415C45.7559 14.7315 46.1779 14.8465 46.5599 14.8495C49.4829 14.8755 52.4079 14.8615 55.3319 14.8645C56.7529 14.8665 57.1659 15.2885 57.1669 16.7235C57.1669 18.2895 57.1929 19.3335 57.1539 20.6375C57.1389 21.1495 57.2909 21.4295 57.7459 21.6895C61.2809 23.6995 64.8029 25.7335 68.3139 27.7865C68.7809 28.5995 69.1639 28.4775 69.5859 28.8285V29.6385C65.5549 36.6255 61.5199 43.6105 57.5049 50.6055V50.6055ZM46.1479 64.8565L48.4799 60.8055H39.4189L39.3649 60.9445L46.1479 64.8565ZM21.9689 4.13252L15.8029 14.8205H40.2519L40.2899 14.7125L21.9689 4.13252V4.13252ZM54.4249 17.6205H3.19086V58.1195H54.4249V17.6205ZM57.2169 24.4865V45.6785C60.3149 40.3135 63.3319 35.8795 66.3919 29.7875C63.3359 28.2195 60.2989 26.2675 57.2169 24.4865V24.4865ZM8.23186 20.8055C12.9119 20.8025 17.5909 20.8035 22.2699 20.8065C22.5169 20.8065 22.7679 20.8095 23.8999 20.8525C23.6369 20.9645 24.8099 21.5055 24.8899 22.1355C24.9699 22.7665 23.6699 23.3205 23.4099 23.4455C22.7579 23.5015 22.4599 23.5015 22.1689 23.5015C18.1199 23.5055 14.6999 23.5045 10.2099 23.5045H9.13986V42.6885C9.33986 42.4185 9.48086 42.2385 9.61086 42.4995C12.1689 38.3505 14.7249 34.6515 17.2829 30.9515C18.2229 29.5915 19.1589 29.6035 20.9799 30.9905C23.4989 36.1995 26.8979 41.4995 30.2979 46.7895C30.4329 46.2775 30.5749 46.4725 30.7499 46.7215L35.8219 39.3915C36.4099 38.5405 36.9949 37.6875 37.5859 36.8385C38.3799 35.6995 39.3899 35.6935 40.1659 36.8385C42.7779 40.6905 45.3809 44.5485 47.9889 48.4035C48.1229 48.6025 48.2659 48.7955 48.4829 49.0995V23.5045H47.6719L35.5229 23.5035C35.2979 23.5035 35.7199 23.5115 34.8489 23.4905C34.6099 23.4155 33.5319 22.8555 33.5469 22.1255C33.5619 21.4185 34.7299 20.8975 34.8369 20.8235C35.3799 20.8035 35.2409 20.8055 35.4429 20.8055C40.7799 20.8035 44.7119 20.8025 49.3459 20.8055C50.8229 20.8055 51.2269 21.2125 51.2269 22.6865V52.9255C51.2269 54.4135 50.8249 54.8255 49.3629 54.8255H8.26186C6.82686 54.8255 6.40986 54.4075 6.40986 52.9815V22.6085C6.40986 21.2335 6.83686 20.8065 8.23186 20.8055ZM32.6329 49.5105C33.6399 50.2205 33.5749 50.8815 34.6999 51.5905C34.2619 52.7995 34.5659 52.1395 35.4799 52.1365C38.8489 52.1175 42.6489 52.1265 46.4499 52.1245C46.6669 52.1245 46.8849 52.1035 47.2159 52.8695C44.4079 47.9315 41.6579 43.8615 38.9019 39.7835C38.8239 39.8515 38.7619 39.8855 38.7259 39.9385C36.6789 42.8945 34.6289 45.8495 32.6049 48.8215C32.4979 48.9785 32.5259 49.3335 32.6329 49.5105V49.5105ZM31.9199 52.7995C26.9249 45.9145 22.8219 39.8445 18.6959 33.7405C18.5789 33.8665 18.5119 33.9235 18.4639 33.9935C15.4089 38.4085 12.3539 42.8245 9.30486 47.2435C9.20786 47.3835 9.12086 47.5675 9.11886 47.7315C9.10486 49.1675 9.11086 50.6035 9.11086 52.7995H31.9199ZM30.1979 35.3815C27.8479 35.4055 25.8779 33.4785 25.8509 31.1275C25.8423 30.5583 25.9467 29.9931 26.1581 29.4646C26.3695 28.936 26.6836 28.4547 27.0823 28.0484C27.4811 27.6422 27.9565 27.319 28.4809 27.0978C29.0054 26.8766 29.5686 26.7616 30.1379 26.7595C32.5139 26.7435 34.4569 28.6395 34.4849 30.9995C34.4917 31.5689 34.3862 32.1341 34.1744 32.6626C33.9625 33.1912 33.6485 33.6727 33.2503 34.0798C32.8521 34.4868 32.3775 34.8113 31.8537 35.0347C31.33 35.258 30.7673 35.3759 30.1979 35.3815ZM30.1169 29.4645C29.2399 29.4875 28.5519 30.1915 28.5519 31.6495C28.5529 31.9575 29.2879 32.6815 30.1849 32.6725C31.8299 32.6625 31.8019 31.9235 31.7829 31.3095C31.7639 30.1315 31.2899 29.4415 30.1169 29.4645V29.4645ZM28.8109 23.4915C28.5299 23.4875 27.4409 22.8485 27.4739 22.9695C27.5059 21.3615 28.1119 20.8055 28.8579 20.8245C29.0324 20.8274 29.2046 20.8647 29.3647 20.9342C29.5248 21.0037 29.6697 21.1042 29.7909 21.2298C29.9121 21.3553 30.0074 21.5036 30.0712 21.6661C30.135 21.8285 30.1662 22.002 30.1629 22.1765C30.154 22.5289 30.0075 22.8638 29.7548 23.1096C29.5022 23.3553 29.1633 23.4924 28.8109 23.4915Z" stroke="#fa8909" stroke-width="4" mask="url(#path-1-inside-1_603_7)"/>
</svg>
