<svg width="24" height="24" viewBox="0 0 66 66" fill="none" xmlns="http://www.w3.org/2000/svg">
<path fill-rule="evenodd" clip-rule="evenodd" d="M33.7791 65.5411C15.5091 65.5841 0.487126 51.2501 0.455126 32.9281C0.424126 15.1531 15.3591 0.490088 32.8111 0.457088C50.9101 0.424088 65.5001 14.9131 65.5421 32.9601C65.5841 50.8471 50.9861 65.4981 33.7791 65.5411ZM32.9871 2.62709C16.3491 2.58709 2.67213 16.1941 2.62513 32.8361C2.57713 49.5731 15.9061 63.2031 32.6651 63.3511C49.6481 63.5001 63.3321 49.9391 63.3721 33.9701C63.4121 16.3031 49.8161 2.66809 32.9871 2.62709ZM45.9611 38.4221C43.7991 38.4061 40.5931 35.9671 40.5931 32.9961C40.5921 30.4001 43.3491 27.5711 46.3491 27.5761C48.9971 27.5811 51.4331 30.1001 51.4381 32.9641C51.4431 35.9931 48.9901 38.4381 45.9611 38.4221ZM46.5891 29.7471C44.2481 29.7361 42.7701 31.1931 42.7661 32.9911C42.7621 34.7631 44.2061 36.2281 45.9761 36.2481C47.7761 36.2681 49.2561 34.8091 49.2671 33.3001C49.2781 31.2381 47.8191 29.7581 46.5891 29.7471ZM32.9341 38.4221C29.9531 38.4011 27.5451 35.9281 27.5751 32.9191C27.6061 29.9401 30.8591 27.5401 33.9391 27.5771C36.4691 27.6131 38.4481 30.7701 38.4201 33.4201C38.3931 36.3301 35.9361 38.4421 32.9341 38.4221ZM33.1991 29.7471C31.2371 29.7471 29.7741 31.1781 29.7481 32.9451C29.7221 34.7451 31.1831 36.2381 32.9801 36.2481C34.7791 36.2571 36.2491 34.7901 36.2501 32.9821C36.2511 31.2181 34.7821 29.7471 33.1991 29.7471ZM33.8991 6.95809C32.6281 6.98409 32.2451 6.96209 31.8621 6.96209C31.8621 6.96909 31.8621 6.97509 31.8621 6.98209C31.5031 7.50009 31.1431 7.58009 30.7861 7.44009C30.1681 7.18009 29.7561 6.60809 29.7231 6.38009C29.6881 5.42109 30.5291 4.96809 30.7131 4.90809C31.4731 4.83909 32.2391 4.80209 33.2991 4.80909C33.6381 4.81409 34.7591 5.28909 34.7791 5.87709C34.8091 6.46309 33.6491 6.91509 33.8991 6.95809ZM26.4691 7.79609C18.9701 9.85709 13.3831 14.3091 9.78613 21.2081C7.94113 24.7471 7.46913 28.5421 6.96713 32.5311C6.96313 32.7341 6.98313 32.9421 6.94413 33.1391C6.83113 33.7211 6.47013 34.7401 5.87213 34.7001C5.27413 34.6501 4.90113 33.7141 4.81313 33.1271C4.76413 32.7951 4.80413 32.4511 4.80413 32.1131C4.97513 21.3171 12.1111 10.9571 22.1441 6.97609C23.3771 6.48709 24.6541 6.10409 25.9241 5.71309C26.7731 5.45109 27.3831 5.75109 27.5461 6.43009C27.6971 7.61009 27.3041 7.56609 26.4691 7.79609ZM19.9951 27.5761C22.9861 27.5801 25.4251 30.3901 25.4031 33.2901C25.3801 36.2301 22.9301 38.4371 19.9281 38.4221C16.9471 38.4071 14.5321 35.9381 14.5571 32.9311C14.5821 29.9761 17.2491 27.5721 19.9951 27.5761ZM19.9081 36.2481C21.7101 36.2841 23.2051 34.8391 23.2321 33.3601C23.2581 31.2691 21.8131 29.7731 20.5591 29.7471C18.2441 29.7211 16.7501 31.1641 16.7301 32.9591C16.7111 34.7311 18.1421 36.2121 19.9081 36.2481Z" fill="#FE8502"/>
</svg>
